<?xml version="1.0" standalone="no"?>
<!DOCTYPE svg PUBLIC "-//W3C//DTD SVG 20010904//EN"
 "http://www.w3.org/TR/2001/REC-SVG-20010904/DTD/svg10.dtd">
<svg version="1.0" xmlns="http://www.w3.org/2000/svg"
 width="500.000000pt" height="500.000000pt" viewBox="0 0 500.000000 500.000000"
 preserveAspectRatio="xMidYMid meet">
<metadata>
Created by potrace 1.14, written by Peter Selinger 2001-2017
</metadata>
<g transform="translate(0.000000,500.000000) scale(0.100000,-0.100000)"
fill="#000000" stroke="none">
<path d="M2108 3965 c-2 -2 -33 -6 -68 -9 -36 -4 -77 -8 -90 -11 -14 -3 -39
-7 -57 -9 -18 -3 -36 -7 -40 -9 -4 -3 -26 -8 -47 -11 -51 -8 -89 -17 -101 -25
-5 -3 -15 -6 -22 -7 -27 -4 -120 -36 -145 -50 -14 -8 -31 -14 -37 -14 -16 0
-165 -72 -169 -82 -2 -4 -10 -8 -17 -8 -14 0 -111 -56 -133 -78 -8 -7 -28 -20
-45 -29 -18 -9 -39 -23 -47 -33 -8 -9 -26 -23 -38 -32 -55 -38 -232 -221 -232
-240 0 -7 -7 -16 -51 -69 -9 -11 -23 -34 -30 -52 -7 -17 -16 -34 -19 -37 -11
-9 -100 -199 -100 -214 0 -8 -5 -18 -10 -21 -6 -4 -10 -12 -9 -18 1 -7 0 -19
-4 -27 -5 -13 -11 -39 -24 -90 -39 -166 -36 -376 9 -565 7 -27 12 -53 13 -57
0 -3 3 -10 7 -14 5 -4 8 -16 8 -26 0 -10 4 -26 9 -36 5 -9 13 -28 19 -42 6
-14 21 -47 33 -75 13 -27 23 -53 21 -57 -1 -5 2 -8 6 -8 5 0 19 -20 32 -45 13
-25 27 -45 32 -45 4 0 8 -9 8 -21 0 -11 5 -17 10 -14 6 3 10 0 10 -8 0 -7 9
-23 20 -35 11 -12 20 -24 20 -27 0 -10 55 -70 156 -170 113 -112 163 -154 182
-155 6 0 12 -4 12 -9 0 -5 17 -20 38 -32 20 -13 39 -26 42 -29 16 -20 261
-146 345 -177 22 -8 49 -19 60 -24 25 -11 269 -78 310 -85 17 -2 55 -9 85 -14
171 -30 497 -32 653 -5 15 3 38 7 51 9 14 2 37 7 53 10 15 4 37 8 48 10 11 2
47 11 80 20 33 10 65 18 70 20 21 5 91 28 110 35 11 5 38 16 60 25 22 9 44 16
49 16 5 -1 12 2 15 7 3 4 38 23 76 42 39 19 72 37 75 40 3 3 15 12 28 19 74
41 63 33 162 109 62 48 227 203 216 203 -2 0 12 17 32 37 40 43 142 195 142
212 0 6 5 11 10 11 6 0 9 3 8 8 -1 4 3 17 10 29 7 13 9 23 5 23 -4 0 -2 4 5 8
14 9 82 200 82 230 0 10 3 22 7 26 11 11 15 64 19 259 1 104 -1 200 -7 214 -5
14 -11 41 -13 61 -4 35 -7 48 -23 90 -3 9 -8 26 -10 37 -1 11 -7 29 -12 40 -6
11 -19 43 -31 70 -31 73 -82 169 -92 173 -4 2 -8 8 -8 14 0 11 -54 91 -87 128
-13 13 -23 28 -23 32 0 11 -215 228 -226 228 -5 0 -17 8 -26 18 -28 29 -164
125 -228 161 -116 64 -338 162 -400 177 -8 2 -40 10 -70 19 -85 24 -90 26
-185 45 -48 9 -96 17 -160 26 -40 6 -412 14 -417 9z"/>
</g>
</svg>
