<?xml version="1.0" standalone="no"?>
<!DOCTYPE svg PUBLIC "-//W3C//DTD SVG 20010904//EN"
 "http://www.w3.org/TR/2001/REC-SVG-20010904/DTD/svg10.dtd">
<svg version="1.0" xmlns="http://www.w3.org/2000/svg"
 width="500.000000pt" height="500.000000pt" viewBox="0 0 500.000000 500.000000"
 preserveAspectRatio="xMidYMid meet">
<metadata>
Created by potrace 1.14, written by Peter Selinger 2001-2017
</metadata>
<g transform="translate(0.000000,500.000000) scale(0.100000,-0.100000)"
fill="#000000" stroke="none">
<path d="M1806 4502 c-3 -2 -22 -6 -43 -9 -21 -3 -41 -10 -45 -17 -4 -6 -8 -7
-8 -2 0 5 -9 1 -20 -9 -15 -14 -20 -15 -20 -4 0 9 -3 10 -8 3 -7 -10 -38 -26
-54 -28 -4 -1 -15 -12 -24 -25 -13 -18 -18 -20 -25 -10 -7 12 -9 11 -9 0 0
-11 -3 -11 -13 3 -7 9 -20 18 -29 19 -9 2 -24 9 -34 17 -16 13 -17 13 -9 0 7
-12 6 -13 -6 -4 -8 6 -25 10 -39 10 -14 -1 -28 4 -32 9 -5 7 -8 7 -8 0 0 -6
-26 -10 -60 -9 -33 0 -60 -4 -60 -9 0 -4 -4 -5 -10 -2 -5 3 -10 3 -10 -2 0 -4
-12 -9 -26 -10 -15 0 -30 -7 -35 -15 -5 -7 -9 -9 -9 -4 0 5 -8 2 -18 -7 -10
-10 -22 -14 -25 -10 -4 3 -7 0 -7 -7 0 -7 -3 -11 -6 -7 -3 3 -15 -3 -27 -13
-11 -11 -24 -17 -28 -15 -4 3 -10 -4 -14 -15 -3 -11 -13 -20 -20 -20 -8 0 -18
-8 -24 -17 -5 -10 -12 -17 -15 -16 -9 5 -115 -104 -109 -111 4 -3 -1 -6 -10
-6 -9 0 -17 -3 -17 -7 0 -5 -14 -24 -30 -43 -16 -19 -30 -38 -30 -42 0 -5 -7
-8 -16 -8 -8 0 -12 -4 -9 -10 3 -5 1 -10 -5 -10 -6 0 -9 -4 -6 -9 3 -5 -1 -12
-10 -15 -8 -3 -13 -10 -10 -15 3 -5 -1 -11 -9 -15 -8 -3 -15 -12 -15 -20 0 -8
-4 -16 -8 -18 -5 -1 -22 -29 -39 -60 -17 -32 -26 -55 -20 -51 7 4 6 -1 -2 -10
-7 -9 -10 -17 -5 -17 5 0 4 -4 -3 -8 -12 -8 -34 -99 -35 -144 0 -17 -5 -25
-11 -21 -6 4 -7 1 -1 -8 13 -21 14 -39 1 -39 -6 0 -2 -7 9 -16 10 -8 14 -13 7
-10 -6 4 -14 2 -18 -4 -3 -5 -1 -10 5 -10 8 0 7 -6 -1 -21 -6 -12 -14 -18 -18
-13 -3 5 -12 10 -19 12 -15 3 -12 -4 22 -53 18 -25 26 -86 16 -115 -1 -3 -3
-34 -4 -70 -2 -36 -5 -65 -6 -65 -3 0 -10 -42 -11 -72 -1 -13 -5 -23 -9 -23
-3 0 -7 -6 -8 -12 -1 -7 -3 -29 -5 -49 -2 -19 -8 -42 -13 -50 -5 -8 -9 -21
-10 -29 0 -8 -4 -23 -8 -32 -4 -9 -5 -22 -1 -28 3 -5 2 -10 -4 -10 -5 0 -8
-12 -5 -26 3 -14 1 -23 -4 -21 -4 3 -8 -39 -7 -94 0 -54 3 -99 7 -99 4 0 5 -7
2 -15 -4 -8 -2 -15 4 -15 6 0 9 -8 7 -17 -1 -10 4 -31 12 -46 7 -15 11 -33 7
-39 -5 -7 -3 -8 6 -3 10 6 12 4 7 -8 -3 -9 1 -18 9 -21 9 -3 14 -12 12 -18 -3
-7 4 -21 13 -32 10 -10 16 -23 13 -28 -3 -4 0 -8 6 -8 6 0 9 -4 6 -9 -3 -5 3
-20 14 -34 12 -15 16 -28 11 -32 -6 -3 1 -21 14 -42 14 -20 25 -44 25 -54 0
-11 5 -19 10 -19 6 0 10 -7 10 -15 0 -8 5 -15 10 -15 6 0 10 -7 10 -15 0 -8 5
-15 10 -15 6 0 10 -7 10 -15 0 -8 5 -15 10 -15 6 0 10 -7 10 -15 0 -8 5 -15
10 -15 6 0 10 -4 10 -10 0 -9 25 -42 57 -75 7 -7 9 -15 6 -19 -4 -3 2 -6 12
-6 10 0 16 -3 12 -6 -5 -5 10 -27 41 -59 6 -8 12 -20 12 -28 0 -9 6 -18 13
-20 9 -4 9 -6 0 -6 -7 -1 -13 -6 -13 -12 0 -5 4 -8 8 -5 22 13 4 -39 -24 -69
-17 -19 -29 -35 -25 -35 3 0 -3 -7 -13 -15 -19 -14 -16 -16 17 -19 6 -1 15 -5
19 -11 5 -6 8 -4 8 5 0 12 2 13 9 1 6 -10 0 -23 -21 -43 -16 -15 -26 -33 -23
-38 4 -6 11 -8 16 -5 5 4 9 0 9 -7 0 -8 3 -9 8 -3 11 16 48 11 43 -5 -2 -8 -4
-21 -4 -27 0 -7 -5 -13 -10 -13 -5 0 -7 -6 -4 -14 3 -8 1 -16 -4 -18 -6 -2
-12 -12 -14 -23 -2 -11 -4 -22 -5 -25 -1 -3 -2 -8 -1 -12 0 -5 -4 -8 -10 -8
-5 0 -8 -3 -6 -7 3 -5 0 -19 -5 -33 -6 -14 -12 -36 -14 -50 -6 -36 -14 -89
-19 -130 -7 -48 -15 -174 -16 -237 -1 -29 -5 -53 -10 -53 -11 0 -7 -23 6 -32
7 -5 6 -8 0 -8 -6 0 -10 -15 -10 -32 1 -18 -2 -43 -6 -56 -6 -15 -5 -22 4 -22
7 0 8 -3 2 -8 -6 -4 -10 -28 -10 -54 0 -27 -2 -48 -5 -48 -3 0 -6 -19 -6 -43
-2 -67 -11 -165 -18 -175 -3 -5 8 -12 24 -14 17 -3 30 0 30 6 0 7 3 7 8 1 4
-7 359 -10 1027 -10 l1020 0 11 25 c8 15 9 33 3 47 -6 16 -5 23 4 23 7 0 8 3
2 8 -9 6 -14 64 -19 224 -1 31 -4 60 -8 63 -4 4 -3 17 2 29 4 12 5 29 1 37 -4
7 -7 28 -7 44 1 17 -3 33 -9 37 -6 5 -5 8 3 8 8 0 10 5 6 12 -4 6 -9 32 -10
57 -6 85 -9 106 -17 119 -5 6 -4 12 1 12 5 0 9 7 9 15 0 8 -5 15 -11 15 -6 0
-5 4 3 9 10 7 12 14 5 23 -5 7 -9 32 -8 56 0 23 -3 42 -8 42 -5 0 -6 6 -2 12
10 15 13 48 5 48 -3 0 -7 34 -9 76 -2 58 1 74 10 70 7 -3 21 -9 31 -12 9 -4
17 -10 17 -15 0 -5 3 -8 8 -7 10 2 46 -14 53 -24 3 -5 15 -10 27 -11 11 0 19
-4 16 -8 -2 -4 7 -10 21 -13 14 -4 25 -11 25 -17 0 -6 5 -7 10 -4 6 3 10 1 10
-4 0 -6 7 -11 15 -11 8 0 15 -4 15 -10 0 -5 7 -10 15 -10 8 0 15 -4 15 -10 0
-5 7 -10 15 -10 8 0 23 -9 32 -20 10 -11 23 -20 30 -20 7 0 13 -4 13 -10 0 -5
6 -10 13 -10 7 0 27 -14 46 -30 18 -17 38 -32 44 -33 18 -3 35 -21 29 -31 -3
-5 -1 -6 5 -3 5 3 21 -5 36 -19 14 -13 29 -24 32 -24 3 0 15 -9 27 -20 12 -11
28 -20 35 -20 7 0 13 -4 13 -8 0 -11 56 -43 64 -35 3 3 6 2 6 -4 0 -10 46 -28
63 -25 4 1 7 -3 7 -8 0 -6 5 -10 11 -10 5 0 8 4 4 9 -3 5 9 3 26 -6 42 -21
161 -21 212 0 20 9 39 16 42 17 9 1 55 51 55 60 0 6 5 10 10 10 6 0 10 6 10
14 0 8 7 17 16 20 9 4 14 13 10 21 -3 8 -2 15 3 15 4 0 8 6 9 13 0 6 6 30 12
52 12 44 18 75 22 118 1 15 7 27 13 27 5 0 3 5 -5 10 -8 5 -10 10 -4 10 7 0
11 20 10 50 -1 28 2 50 6 50 4 0 5 6 2 13 -2 7 -6 42 -9 78 -2 35 -4 64 -5 64
-1 0 -4 16 -5 35 -5 44 -12 109 -20 180 -4 30 -8 91 -11 135 -8 165 -13 202
-34 260 -11 33 -26 75 -32 93 -6 17 -15 32 -20 32 -5 0 -6 6 -1 13 9 14 12
157 2 157 -3 0 -5 12 -5 28 1 15 -2 37 -6 50 -5 14 -3 22 4 22 7 0 3 7 -8 16
-10 8 -13 13 -6 9 7 -4 12 0 12 9 0 25 -12 46 -26 46 -8 0 -14 4 -14 9 0 6 -9
8 -21 6 -15 -3 -19 0 -15 11 3 9 6 18 6 20 0 2 9 4 19 4 11 0 32 5 48 12 15 6
31 11 34 10 4 -1 25 16 48 38 22 22 41 36 41 33 0 -8 105 149 105 157 0 3 10
19 23 37 12 17 22 34 22 37 0 3 10 16 23 30 38 41 46 54 40 60 -4 3 -2 6 4 6
5 0 24 20 42 45 17 24 39 51 47 60 9 8 12 15 7 15 -4 0 -2 4 5 9 8 4 16 28 19
52 3 24 2 41 -2 37 -4 -4 -17 2 -28 13 -14 13 -24 16 -31 9 -5 -5 -18 -10 -28
-10 -10 0 -22 -8 -25 -17 -4 -10 -17 -28 -30 -40 -13 -12 -23 -26 -23 -31 0
-6 -7 -13 -16 -16 -8 -3 -13 -9 -11 -13 7 -11 -19 -33 -29 -25 -4 4 -4 2 -1
-4 6 -11 -38 -64 -52 -64 -4 0 -7 9 -7 20 0 11 6 20 14 20 7 0 11 4 8 9 -3 5
7 21 22 37 15 15 20 24 12 20 -9 -4 -8 -2 2 7 10 8 18 19 18 26 0 6 4 11 9 11
5 0 14 14 21 30 7 17 17 30 22 30 5 0 7 4 4 9 -3 5 1 11 9 15 8 3 15 12 15 21
0 8 5 15 10 15 6 0 10 6 10 13 0 7 9 23 20 35 12 12 18 22 14 22 -4 0 0 8 9
18 22 24 39 72 26 72 -6 0 -8 4 -4 9 6 11 -21 41 -38 42 -7 0 -20 2 -30 4 -10
2 -14 -1 -10 -8 4 -6 0 -8 -10 -4 -10 4 -21 -3 -31 -19 -9 -13 -13 -24 -9 -24
5 0 0 -5 -10 -11 -9 -6 -15 -14 -12 -19 3 -4 -2 -11 -11 -14 -8 -3 -12 -10 -9
-16 3 -5 1 -10 -5 -10 -6 0 -14 -8 -17 -17 -6 -16 -24 -41 -49 -67 -6 -6 -9
-17 -6 -25 3 -9 0 -11 -8 -6 -10 6 -12 4 -7 -9 4 -9 3 -14 -2 -11 -5 3 -12 -4
-16 -15 -3 -11 -11 -20 -17 -20 -6 0 -9 -3 -5 -6 3 -3 -5 -17 -19 -31 -13 -13
-24 -28 -24 -33 0 -5 -7 -7 -15 -3 -14 5 -14 8 0 29 8 13 15 30 15 39 0 8 4
15 9 15 5 0 13 9 16 20 4 11 10 18 14 16 4 -3 8 4 8 15 1 10 9 26 17 34 8 8
18 24 21 35 3 11 11 20 16 20 6 0 8 4 4 9 -3 6 0 13 7 18 7 4 20 22 28 38 8
17 26 50 40 75 14 25 33 62 42 82 17 37 17 38 -7 66 -27 32 -72 37 -97 11 -37
-41 -52 -62 -38 -55 8 4 7 1 -4 -8 -10 -8 -15 -20 -10 -27 4 -8 3 -10 -4 -5
-7 4 -12 1 -12 -8 0 -8 -8 -20 -17 -25 -10 -6 -15 -11 -10 -11 4 0 0 -11 -9
-25 -8 -13 -13 -29 -9 -35 3 -5 1 -10 -5 -10 -6 0 -16 -13 -21 -30 -6 -17 -16
-27 -22 -23 -5 3 -7 1 -3 -5 3 -6 -1 -17 -9 -25 -8 -9 -15 -21 -15 -27 0 -6
-4 -9 -9 -6 -5 4 -7 -3 -4 -14 3 -12 2 -20 -3 -18 -5 2 -11 -1 -14 -7 -10 -22
-44 -54 -51 -49 -5 3 -2 21 6 40 7 18 11 34 7 34 -4 0 -2 4 5 8 6 4 13 14 15
22 2 8 11 23 20 33 9 11 14 25 12 31 -3 7 4 20 15 30 11 10 18 23 15 27 -3 5
0 9 7 9 7 0 9 3 6 7 -4 3 -2 12 3 18 6 7 21 41 35 74 20 52 21 63 10 68 -8 3
-13 9 -10 13 5 9 -14 17 -55 25 -23 4 -70 -37 -70 -61 0 -8 -4 -14 -10 -14 -5
0 -10 -7 -10 -15 0 -8 -5 -15 -11 -15 -5 0 -7 -4 -4 -10 3 -5 1 -10 -4 -10 -6
0 -10 -3 -9 -7 2 -11 -13 -46 -28 -63 -7 -8 -13 -18 -13 -23 0 -10 -82 -180
-90 -187 -9 -7 -30 -42 -40 -66 -17 -39 -39 -37 -61 6 -11 22 -22 47 -23 57
-9 44 -20 73 -28 73 -4 0 -16 8 -26 19 -24 25 -85 43 -117 35 -26 -6 -77 -64
-57 -64 6 0 10 -4 9 -8 -4 -11 54 -102 65 -102 4 0 5 -4 2 -10 -3 -5 -1 -10 5
-10 6 0 8 -4 5 -10 -3 -5 -3 -10 2 -10 4 0 9 -10 10 -22 8 -80 8 -125 0 -135
-6 -9 -6 -13 1 -13 7 0 9 -7 5 -17 -9 -22 -8 -77 1 -91 4 -7 5 -12 1 -12 -3 0
-1 -10 6 -21 8 -15 8 -19 0 -15 -8 5 -8 0 -1 -18 5 -14 7 -26 4 -26 -4 0 -1
-7 6 -15 7 -8 9 -15 5 -15 -4 0 -3 -6 2 -12 5 -7 9 -22 9 -33 -1 -11 4 -23 9
-27 6 -4 10 -11 11 -15 0 -4 7 -21 14 -38 7 -16 14 -48 15 -71 2 -34 -2 -42
-24 -55 -29 -17 -30 -28 -34 -216 0 -37 -5 -63 -11 -63 -7 0 -7 -3 0 -8 16
-10 28 -116 13 -106 -8 4 -9 3 -5 -5 4 -6 2 -18 -4 -26 -7 -8 -10 -22 -6 -30
3 -8 2 -15 -3 -15 -4 0 -8 -6 -9 -12 0 -7 -4 -40 -8 -73 -4 -33 -7 -107 -8
-165 0 -62 -4 -108 -10 -112 -7 -5 -5 -8 4 -8 13 0 13 -1 0 -10 -22 -14 -24
-13 -61 20 -19 17 -46 38 -61 47 -16 10 -28 21 -28 25 0 4 -5 8 -11 8 -14 0
-149 137 -149 152 0 6 -3 9 -6 5 -4 -3 -21 10 -39 29 -18 18 -36 34 -41 34 -5
0 -16 9 -24 20 -8 11 -19 20 -25 20 -6 0 -20 8 -31 18 -21 18 -86 52 -146 74
l-38 14 25 46 c13 25 21 49 17 53 -4 3 0 5 8 3 8 -1 14 3 15 10 0 7 7 17 15
22 8 5 11 10 6 10 -5 0 -3 7 4 15 7 8 10 15 6 15 -3 0 3 16 14 36 11 19 18 39
15 45 -4 5 -2 9 4 9 9 0 37 68 33 83 -1 4 2 7 7 7 4 0 17 36 27 80 11 44 22
80 25 80 3 0 5 18 4 40 -1 22 1 40 4 40 10 0 1 172 -11 220 -19 75 -57 160
-71 160 -4 0 -6 4 -3 9 3 5 -8 24 -24 42 -16 19 -30 38 -30 42 0 5 -13 22 -30
39 -16 16 -30 34 -30 39 0 6 -4 7 -10 4 -5 -3 -10 -3 -10 2 0 4 -14 24 -30 43
-16 19 -30 41 -30 48 0 6 -6 12 -12 12 -7 1 5 16 27 35 22 19 40 40 40 47 1 7
6 12 13 11 6 -2 9 4 6 12 -4 8 -1 15 6 15 6 0 10 6 7 13 -2 6 3 18 12 25 10 9
11 11 2 6 -11 -5 -13 -3 -8 9 8 22 5 21 -29 -8 -36 -31 -81 -48 -90 -33 -4 6
-9 5 -15 -3 -6 -10 -9 -11 -9 -1 0 6 -7 12 -15 12 -8 0 -15 4 -15 10 0 5 -5 9
-12 7 -7 -1 -17 12 -23 29 -5 17 -16 38 -22 46 -7 8 -10 18 -6 21 3 4 2 7 -3
7 -6 0 -16 17 -23 37 -8 21 -20 43 -28 51 -7 7 -11 18 -8 23 4 5 -1 9 -10 9
-9 0 -14 4 -10 10 3 5 -3 18 -15 30 -11 11 -20 27 -20 36 0 8 -4 12 -10 9 -5
-3 -10 0 -10 8 0 7 -8 22 -18 33 -10 10 -21 27 -25 37 -3 9 -13 17 -22 17 -8
0 -15 4 -15 10 0 10 -75 90 -85 90 -6 0 -23 13 -54 41 -9 8 -23 13 -29 11 -7
-2 -12 1 -12 8 0 6 -4 8 -10 5 -5 -3 -10 -3 -10 2 0 9 -49 33 -78 38 -9 2 -18
4 -19 5 -2 2 -6 3 -10 4 -63 15 -89 19 -165 21 -48 1 -90 0 -92 -3z"/>
</g>
</svg>
